<svg width="42" height="42" viewBox="0 0 42 42" fill="none" xmlns="http://www.w3.org/2000/svg">
<g clip-path="url(#clip0_1_15)">
<path d="M29.488 0H12.512C5.61287 0 0 5.61287 0 12.512V29.488C0 36.3871 5.61287 42 12.512 42H29.488C36.3871 42 42 36.3871 42 29.488V12.512C41.9999 5.61287 36.3871 0 29.488 0ZM37.7748 29.488C37.7748 34.0646 34.0646 37.7748 29.488 37.7748H12.512C7.93538 37.7748 4.2252 34.0646 4.2252 29.488V12.512C4.2252 7.9353 7.93538 4.2252 12.512 4.2252H29.488C34.0646 4.2252 37.7748 7.9353 37.7748 12.512V29.488Z" fill="url(#paint0_linear_1_15)"/>
<path d="M21 10.1373C15.0103 10.1373 10.1373 15.0103 10.1373 20.9999C10.1373 26.9896 15.0103 31.8626 21 31.8626C26.9897 31.8626 31.8627 26.9896 31.8627 20.9999C31.8627 15.0102 26.9897 10.1373 21 10.1373ZM21 27.6375C17.3342 27.6375 14.3625 24.6658 14.3625 21C14.3625 17.3342 17.3343 14.3625 21 14.3625C24.6658 14.3625 27.6375 17.3342 27.6375 21C27.6375 24.6658 24.6657 27.6375 21 27.6375Z" fill="url(#paint1_linear_1_15)"/>
<path d="M31.8837 12.8218C33.3213 12.8218 34.4866 11.6564 34.4866 10.2189C34.4866 8.78134 33.3213 7.61597 31.8837 7.61597C30.4462 7.61597 29.2808 8.78134 29.2808 10.2189C29.2808 11.6564 30.4462 12.8218 31.8837 12.8218Z" fill="url(#paint2_linear_1_15)"/>
</g>
<defs>
<linearGradient id="paint0_linear_1_15" x1="21" y1="41.8777" x2="21" y2="0.326221" gradientUnits="userSpaceOnUse">
<stop stop-color="#E09B3D"/>
<stop offset="0.3" stop-color="#C74C4D"/>
<stop offset="0.6" stop-color="#C21975"/>
<stop offset="1" stop-color="#7024C4"/>
</linearGradient>
<linearGradient id="paint1_linear_1_15" x1="21" y1="41.8778" x2="21" y2="0.326247" gradientUnits="userSpaceOnUse">
<stop stop-color="#E09B3D"/>
<stop offset="0.3" stop-color="#C74C4D"/>
<stop offset="0.6" stop-color="#C21975"/>
<stop offset="1" stop-color="#7024C4"/>
</linearGradient>
<linearGradient id="paint2_linear_1_15" x1="31.8837" y1="41.8778" x2="31.8837" y2="0.326252" gradientUnits="userSpaceOnUse">
<stop stop-color="#E09B3D"/>
<stop offset="0.3" stop-color="#C74C4D"/>
<stop offset="0.6" stop-color="#C21975"/>
<stop offset="1" stop-color="#7024C4"/>
</linearGradient>
<clipPath id="clip0_1_15">
<rect width="42" height="42" fill="white"/>
</clipPath>
</defs>
</svg>
