<svg width="41" height="41" viewBox="0 0 41 41" fill="none" xmlns="http://www.w3.org/2000/svg">
<g clip-path="url(#clip0_1_9)">
<path d="M20.4998 41.0011C31.8215 41.0011 40.9995 31.8231 40.9995 20.5013C40.9995 9.17964 31.8215 0.00158691 20.4998 0.00158691C9.17805 0.00158691 0 9.17964 0 20.5013C0 31.8231 9.17805 41.0011 20.4998 41.0011Z" fill="#41B4E6"/>
<path d="M41 20.5002C41 20.0007 40.9812 19.5057 40.9461 19.0151L32.4499 10.519L8.55011 19.9201L17.6943 29.0644L17.8143 29.4962L17.9695 29.3397L17.9702 29.3403L17.8143 29.4962L27.9295 39.6114C35.5786 36.6357 41 29.2015 41 20.5002Z" fill="#0091C8"/>
<path d="M18.5091 23.4869L27.7734 30.4815L32.4499 10.519L8.55005 19.9201L15.8225 22.329L29.0949 13.4262L18.5091 23.4869Z" fill="white"/>
<path d="M15.8225 22.329L17.8143 29.4963L18.5091 23.4869L29.0949 13.4262L15.8225 22.329Z" fill="#D2D2D7"/>
<path d="M21.52 25.7602L17.8143 29.4963L18.5091 23.4869L21.52 25.7602Z" fill="#B9B9BE"/>
</g>
<defs>
<clipPath id="clip0_1_9">
<rect width="41" height="41" fill="white"/>
</clipPath>
</defs>
</svg>
