<svg width="59" height="34" viewBox="0 0 59 34" fill="none" xmlns="http://www.w3.org/2000/svg">
<path d="M48.9594 19.4966C48.0055 18.3066 48.2784 17.7771 48.9594 16.7134C48.9717 16.7013 56.846 5.95243 57.6573 2.30714L57.6622 2.30471C58.0654 0.976285 57.6622 0 55.7127 0H49.2618C47.6196 0 46.8624 0.837857 46.4567 1.77529C46.4567 1.77529 43.1723 9.54186 38.5259 14.5763C37.0262 16.031 36.333 16.4973 35.5143 16.4973C35.1111 16.4973 34.4842 16.031 34.4842 14.7026V2.30471C34.4842 0.711571 34.0245 0 32.665 0H22.5216C21.4915 0 20.8793 0.743143 20.8793 1.43529C20.8793 2.94586 23.2026 3.29314 23.4435 7.54314V16.7644C23.4435 18.785 23.0723 19.1566 22.2487 19.1566C20.0558 19.1566 14.7333 11.3584 11.5792 2.43343C10.9424 0.701857 10.3204 0.0024284 8.66593 0.0024284H2.21258C0.371221 0.0024284 0 0.840285 0 1.77771C0 3.434 2.19291 11.6693 10.1975 22.5493C15.5323 29.9759 23.0452 34 29.8796 34C33.9876 34 34.4892 33.1063 34.4892 31.569C34.4892 24.4727 34.1179 23.8024 36.1756 23.8024C37.1295 23.8024 38.7717 24.2687 42.6069 27.8509C46.9902 32.0984 47.7105 34 50.164 34H56.6149C58.4538 34 59.3856 33.1063 58.8496 31.3431C57.6229 27.6347 49.3331 20.0066 48.9594 19.4966V19.4966Z" fill="#4B729F"/>
</svg>
